<svg version="1" xmlns="http://www.w3.org/2000/svg" width="682.667" height="682.667" viewBox="0 0 512.000000 512.000000"><path d="M227.5 23.1c-42.3 5.5-84.7 23.4-118 49.9-65.8 52.5-98.9 139-84.9 222 8.1 48.2 31.3 92.9 66 127.4 36.2 36 81.2 58.3 133.4 66.3 15.7 2.4 48.1 2.4 64 0 52-7.9 97.3-30.4 133.4-66.3 34.7-34.5 57.1-77.7 66.1-127.4 2.6-14.3 3.2-53.7 1.1-69.5-6-43.7-24.7-86.3-52.4-119.5-38.3-45.9-93.1-75.6-153.2-83-10-1.2-45.5-1.1-55.5.1zm163.2 62.5c-.9.9-2.8-.6-2.1-1.8.4-.6 1-.6 1.7.1.6.6.8 1.3.4 1.7zm-143.3 45c1.9 1.8 1.9 2 .6 4.5-2.3 4.1-7.2.7-5.2-3.6 1.3-2.9 2.4-3.1 4.6-.9zM181 132c0 .5-.5 1-1.1 1-.5 0-.7-.5-.4-1 .3-.6.8-1 1.1-1 .2 0 .4.4.4 1zm38.3 8.6c.9.9-.4 3.5-1.4 2.8-.5-.3-.9-1.2-.9-2 0-1.4 1.2-1.9 2.3-.8zm170.7 6.9c0 .8-.4 1.5-.9 1.5-1.3 0-2.2-1.6-1.4-2.4 1.1-1.1 2.3-.6 2.3.9zm-57.5 9.5c.3.5.1 1-.4 1-.6 0-1.1-.5-1.1-1 0-.6.2-1 .4-1 .3 0 .8.4 1.1 1zM243 180.3c0 .5.4.6.9.3.5-.4 1.1-.1 1.3.5.4 1.3 12.8 1.9 12.8.7 0-.4.7-.5 1.5-.2.8.4 1.5 1.2 1.5 1.9 0 1.3 4.8 1.3 6.9.1.5-.3 1.1.3 1.4 1.4.3 1.3 1.3 1.9 2.9 1.9 2.7-.2 5.1.3 5.8 1.3.3.4 1.7.9 3.2 1.2 3.4.6 8.8 3.4 8.8 4.6 0 .6.9.6 2.5 0 2.1-.8 2.8-.5 4.7 2 1.2 1.7 2.8 3 3.6 3 2 0 9.9 4.9 10.6 6.5.3.8 1.2 1.2 2.1.9 1.9-.7 4.7 1.4 3.8 2.9-.4.6-.1.7.7.2.8-.5 1.8-.1 2.7 1 .7 1.1 1.3 1.5 1.3 1.1 0-.4.7-.1 1.5.8.8.8 1.5 2 1.5 2.6 0 1.3 6.9 7.5 8.4 7.5.6 0 1 1 .9 2.2-.2 1.5.6 2.4 2.9 3.4 1.7.7 5.2 3 7.9 5 3.2 2.6 4.9 3.4 5.3 2.6.5-.9.7-.9 1.2.1.3.7 2.9 2.3 5.7 3.5 9.4 4.2 15.2 6.6 17.7 7.2 2.8.7 11.2 4.1 15.2 6.1 1.4.8 3.5 1.4 4.6 1.4 1.2 0 2.3.4 2.7.9 1.1 1.9 6.2 3.8 7.8 3 1-.6 1.7-.4 2.1.6.3.8 1.5 1.5 2.6 1.5 3.1 0 11.9 4.3 12.5 6.1.3.9 1.7 2.1 3 2.7 1.4.6 2.5 1.6 2.5 2.2 0 .6.4.9.9.6.5-.3 2 .3 3.2 1.3 1.9 1.6 2.2 2.2 1.2 3.2-1.8 1.9-1.6 3.1.5 2.5.9-.3 2.3-.2 3 .3 5.2 3.3-11.5 8.8-28.3 9.4-5 .1-9.5.5-10 .8-.6.3-1.4.5-2 .4-11.6-1.4-14.7-1.5-15.7-.9-1.8 1.1-7.8 1.3-8.4.2-.7-1.1-11.7-1-15 .2-1.8.7-3 .7-3.9 0-.9-.8-1.5-.8-2 0-.4.7-1.2.7-2.4 0-1-.5-3.6-.7-5.7-.4-7.3 1.1-15.9 1.1-17.4 0-1.3-1-1.3-.9-.1.7 1.4 1.7 1.2 1.8-4.5 1.2-3.2-.4-6.7-.9-7.6-1.1-3.1-.9-12.8-1.3-12.8-.5 0 .4 1.7.8 3.8 1 2 .1 5.1.4 6.7.6 15 1.9 17.8 2.4 18.4 3.3.3.6 3.4 1.6 6.9 2.2 3.4.7 6.5 1.6 6.8 2.1.2.4 1.1.6 1.9.2.8-.3 1.5 0 1.5.7 0 .6-.4.9-1 .5-.5-.3-1.8.3-3 1.5-1.1 1.1-2.4 2-3 2-.5 0-1 .5-1 1.1 0 .5-.4.7-1 .4-.5-.3-1-.1-1 .5s-.4.9-.8.6c-.5-.3-2 .6-3.4 1.9-1.5 1.4-3.5 2.3-4.6 2-1.1-.2-2.3.2-2.6 1-.2.7-2.1 1.8-4 2.5-2 .6-3.6 1.6-3.6 2 0 .5-.7.7-1.5.4-.9-.4-1.5 0-1.5.7 0 .8-.8 2.3-1.6 3.4-1.6 2-1.6 2-.9-.3.5-1.6.2-2.2-.9-2.2-.9 0-1.6.5-1.6 1.1 0 .5-.4.7-1 .4-.5-.3-1-.2-1 .2 0 .5-1.6 1.5-3.5 2.2-1.9.7-3.5 1.7-3.5 2.2 0 .5-.8.9-1.8.9s-2.7.7-3.8 1.5c-1 .8-2.6 1.5-3.5 1.5-.9 0-2 .7-2.3 1.6-.5 1.3-.9 1.4-2 .5-.9-.8-1.6-.8-2-.2-.4.6-1.2.8-1.9.5-.7-.2-4.1.4-7.4 1.4-3.7 1.2-6.5 1.6-7.1 1-.5-.5-3-1.1-5.6-1.4-3.7-.5-5.1-.2-6.7 1.2-1.7 1.5-1.9 1.6-1.4.1.5-1.3.2-1.5-1.6-1.2-1.3.3-2.7-.2-3.5-1.3-.9-1.1-1.3-1.3-1.4-.4 0 .9-.5 1-1.7.4-1-.5-4.4-1.3-7.5-1.6-3.2-.4-5.8-1.2-5.8-1.7s-1.2-.8-2.7-.6c-1.6.2-4-.2-5.4-.9-1.5-.7-2.9-1.1-3.2-.8-.3.3-1.1-.3-1.8-1.4-1-1.7-1.7-1.9-3.3-1-1.5.8-2.2.7-3.1-.6-.7-.9-1.7-1.6-2.4-1.6-.6 0-1.1-.5-1.1-1 0-.6-.7-1-1.5-1s-2.9-1.2-4.6-2.8c-1.7-1.5-3.6-2.7-4.2-2.7-.7 0-1.7-.4-2.4-.8-.7-.5-1.6.1-2.3 1.3-.6 1.2-1.9 2-2.8 1.8-1.3-.3-1.7-1.4-1.7-4.8 0-3.9-.4-4.6-3-6-1.6-.8-3.1-1.8-3.3-2.3-.2-.4-1-.7-1.7-.7-1.3 0-2.9-1.7-6.5-6.9-.8-1.2-1.7-1.6-2.1-1-.3.6-1.2-.3-1.9-2s-1.9-3.1-2.6-3.1c-.8 0-1.3-.6-1.1-1.3.1-.6-.7-1.2-1.8-1.2-1.3 0-2-.7-1.9-1.7.1-1-.3-1.6-1-1.5-.6.1-1-.3-.9-.8 0-.6-.5-1.6-1.3-2.3-.8-.7-1.4-1-1.4-.7 0 .4-.7 0-1.5-.9-.8-.8-1.5-1.7-1.5-2.1 0-.3 3-.5 6.8-.4 7.2.1 12.2-.8 12.2-2.2 0-.5-.6-.9-1.2-.9-.9 0-.8-.4.2-1.1 1.1-.8.7-.9-1.7-.4-2.1.4-3.3.3-3.3-.4 0-1.7-3.1-2.8-14.5-5.1-6.1-1.2-12.6-2.8-14.6-3.5-2-.8-3.9-1.1-4.2-.8-.4.3-2.3-.1-4.4-.9-2.1-.7-5.1-1.3-6.6-1.2-1.5 0-3-.3-3.3-.7-.3-.5-1.9-.9-3.5-.9-2.1 0-3.9-1-5.9-3.2-2.2-2.3-3.7-3.1-6.2-3-1.8 0-4.4-.6-5.7-1.5-2.3-1.5-2.4-1.4-1.8.3.6 1.6.3 1.5-1.2-.4-1.8-2-2.1-2.1-3.5-.6-1.6 1.5-1.7 1.5-2-.9 0-.6-2-1.8-4.3-2.5-2.4-.8-4.3-2-4.3-2.8 0-.8-.5-1.4-1.2-1.4-2.7 0-9.8-3.4-9.8-4.6 0-.8-.5-1.4-1.1-1.4-.5 0-.8-.4-.5-.9.7-1-2.2-2.4-3.4-1.6-.5.3-1.1.1-1.4-.4-.4-.5-.2-1.2.4-1.6.5-.3 1-1.5 1-2.5 0-2.1 10.1-7.3 12.5-6.4.8.4 2.9.1 4.7-.6 1.8-.6 7.6-1.4 12.8-1.6 5.2-.2 10.6-.6 11.8-.9 1.3-.2 6.8-.7 12.3-1.1 5.4-.4 9.9-1.1 9.9-1.6s.5-.6 1-.3c1.5.9 20-.6 19.4-1.6-.3-.5.2-.6 1-.3s2.6-.2 4-1.1c1.4-.9 3.5-1.8 4.8-2 4-.5 5-.9 8.1-3.7 1.7-1.5 3.4-2.5 3.8-2.2.4.2 1.4-.5 2.2-1.6.7-1.1 1.6-1.7 2-1.4.3.3 1.5-.4 2.6-1.5 1.3-1.3 3.4-2.1 5.4-2.1 2.1 0 4.1-.8 5.1-1.9 1-1.1 2.4-1.7 3.1-1.5.7.3 1.5-.4 1.8-1.7.4-1.6 1.1-2 2.6-1.6 1.2.3 2.4 0 2.9-.6.7-1.2 2.2-1.6 7.2-2 1.8-.1 2.6-.9 2.8-2.5.4-2.5 2.2-3.1 2.2-.6 0 1.4.2 1.4 1.6-.1.9-.9 2.3-1.4 3-1.1 1.3.5 6.7-1.7 6-2.5-.3-.2 2.5-.3 6-.2 3.5.1 6.4-.2 6.4-.5 0-.4 1.1-.7 2.5-.7s2.5.4 2.5.8zm-75.4 25.5c-1.8 1.6-1.8 1.6-.6-.6.6-1.3 1.4-2.1 1.8-1.8.3.4-.2 1.4-1.2 2.4zM110.5 252c.3.5-.1 1-.9 1s-1.8-.5-2.1-1c-.3-.6.1-1 .9-1s1.8.4 2.1 1zm36.5 14c0 .5-.2 1-.4 1-.3 0-.8-.5-1.1-1-.3-.6-.1-1 .4-1 .6 0 1.1.4 1.1 1zm7 1.6c0 .2-.7.4-1.5.4s-1.5-.4-1.5-1c0-.5.7-.7 1.5-.4.8.4 1.5.8 1.5 1zm18.3 3.8c3.5.9 1.2 1.8-2.7 1.1-3.5-.7-5.1-2.5-2.1-2.5.8 0 1.6-.6 1.6-1.3.1-.6.3-.5.6.4.2 1 1.4 1.9 2.6 2.3zm192.4 18.2c-.3.3-1.2.4-1.9.1-.8-.3-.5-.6.6-.6 1.1-.1 1.7.2 1.3.5zM471 307c0 .5-.4 1-1 1-.5 0-1-.5-1-1 0-.6.5-1 1-1 .6 0 1 .4 1 1zm-203.9 56.3c-1.3 1.3-2.6.3-1.6-1.2.3-.6 1.1-.8 1.7-.5.6.4.6 1-.1 1.7zm-68.7 77.8c-.3.5-1 .7-1.5.3-.5-.3-.7-1-.3-1.5.3-.5 1-.7 1.5-.3.5.3.7 1 .3 1.5zm-63.4 2.3c0 .3-.4.8-1 1.1-.5.3-1 .1-1-.4 0-.6.5-1.1 1-1.1.6 0 1 .2 1 .4z"/><path d="M70.6 229.5c.4.8 1.1 1.5 1.6 1.5.6 0 .5-.6-.2-1.5-.7-.8-1.4-1.5-1.6-1.5-.2 0-.1.7.2 1.5zM115.8 252.7c.6.2 1.8.2 2.5 0 .6-.3.1-.5-1.3-.5-1.4 0-1.9.2-1.2.5zM174 275.5c-.9 1-.9 1.5-.1 1.5.6 0 1.1-.4 1.1-.9s.8-1.2 1.8-1.4c1.4-.4 1.4-.5.1-.6-.9 0-2.2.6-2.9 1.4z"/></svg>